<?xml version="1.0" encoding="UTF-8"?>
<svg width="12px" height="16px" viewBox="0 0 12 16" version="1.1" xmlns="http://www.w3.org/2000/svg" xmlns:xlink="http://www.w3.org/1999/xlink">
    <!-- Generator: Sketch 64 (93537) - https://sketch.com -->
    <title>Shape</title>
    <desc>Created with Sketch.</desc>
    <g id="Symbols" stroke="none" stroke-width="1" fill="none" fill-rule="evenodd">
        <g id="atoms/data/Precip-amount" transform="translate(0.000000, -2.000000)" fill-rule="nonzero" stroke="#878787" stroke-width="0.714285714">
            <g id="Precip" transform="translate(1.000000, 0.000000)">
                <path d="M4.53219662,2.89097652 C6.25507811,3.8432608 9.84707857,8.36833713 10.3066219,11.6474474 C10.334526,13.3652903 9.77304348,14.7484231 8.85708736,15.729016 C7.8883088,16.7661589 6.51875978,17.3571429 4.99950108,17.3571429 C3.54302065,17.3571429 2.22389043,16.8125986 1.26026731,15.9324543 C0.285019232,15.0416923 -0.326594844,13.8078923 -0.356227296,12.4421133 C0.146905237,8.40664363 3.65705731,3.95234886 4.53219662,2.89097652 Z M2.71705318,10.2216266 C2.70832712,10.2336185 2.70040679,10.247973 2.69230079,10.2635425 C2.36982822,10.883422 2.10246493,11.5185262 1.99660437,12.4714744 C2.00931504,12.8791813 2.13980542,13.2575713 2.35541205,13.5821866 C2.58928303,13.9343005 2.92266742,14.2233478 3.31554289,14.4205453 C3.35002424,14.4378747 3.38644165,14.4423605 3.4205325,14.4382468 C3.46012911,14.4334688 3.49746098,14.4180422 3.52545427,14.3944031 L3.53544081,14.388829 C3.51121535,14.357448 3.48486166,14.3241331 3.45697884,14.2888677 C3.12861588,13.873564 2.63620489,13.2223568 2.63620489,12.3427593 C2.63620489,11.5913334 2.71338832,10.7301246 2.71705318,10.2216266 Z" id="Shape"></path>
            </g>
        </g>
    </g>
</svg>